<svg xmlns="http://www.w3.org/2000/svg" width="22.973" height="19.994" viewBox="0 0 22.973 19.994">
  <g id="_001-shopping-cart" data-name="001-shopping-cart" transform="translate(0 -16.878)">
    <path id="Trazado_133" data-name="Trazado 133" d="M22.835,20.46a.662.662,0,0,0-.524-.257H5.472l-.735-2.829a.662.662,0,0,0-.641-.5H.662a.662.662,0,0,0,0,1.324H3.584l.735,2.829h0L6.913,31a.662.662,0,0,0,.641.5H19.718a.662.662,0,0,0,.641-.5l2.593-9.971A.661.661,0,0,0,22.835,20.46ZM10.4,30.173H8.066l-.52-2H10.4Zm0-3.323H7.2l-.52-2H10.4Zm0-3.324H6.337l-.52-2H10.4Zm5.14,6.648H11.728v-2h3.816Zm0-3.323H11.728v-2h3.816Zm0-3.324H11.728v-2h3.816Zm3.662,6.648H16.868v-2h2.858Zm.864-3.323h-3.2v-2h3.723Zm.865-3.324H16.868v-2h4.587Z" fill="#fff"/>
    <path id="Trazado_134" data-name="Trazado 134" d="M80.5,188.62a2.418,2.418,0,1,0,2.418,2.418A2.421,2.421,0,0,0,80.5,188.62Zm0,3.512a1.094,1.094,0,1,1,1.094-1.094A1.1,1.1,0,0,1,80.5,192.132Z" transform="translate(-71.194 -156.584)" fill="#fff"/>
    <path id="Trazado_135" data-name="Trazado 135" d="M178.538,188.62a2.418,2.418,0,1,0,2.418,2.418A2.421,2.421,0,0,0,178.538,188.62Zm0,3.512a1.094,1.094,0,1,1,1.094-1.094A1.1,1.1,0,0,1,178.538,192.132Z" transform="translate(-160.576 -156.584)" fill="#fff"/>
  </g>
</svg>
