<svg xmlns="http://www.w3.org/2000/svg" width="21.789" height="15.106" viewBox="0 0 21.789 15.106">
  <g id="_002-delivery" data-name="002-delivery" transform="translate(0 0)">
    <g id="Grupo_18" data-name="Grupo 18" transform="translate(13.71 9.613)">
      <g id="Grupo_17" data-name="Grupo 17">
        <path id="Trazado_136" data-name="Trazado 136" d="M324.9,304.4a2.747,2.747,0,1,0,2.747,2.747A2.75,2.75,0,0,0,324.9,304.4Zm0,4.12a1.373,1.373,0,1,1,1.373-1.373A1.375,1.375,0,0,1,324.9,308.523Z" transform="translate(-322.151 -304.403)" fill="#fff"/>
      </g>
    </g>
    <g id="Grupo_20" data-name="Grupo 20" transform="translate(4.326 9.613)">
      <g id="Grupo_19" data-name="Grupo 19">
        <path id="Trazado_137" data-name="Trazado 137" d="M104.394,304.4a2.747,2.747,0,1,0,2.747,2.747A2.75,2.75,0,0,0,104.394,304.4Zm0,4.12a1.373,1.373,0,1,1,1.373-1.373A1.375,1.375,0,0,1,104.394,308.523Z" transform="translate(-101.647 -304.403)" fill="#fff"/>
      </g>
    </g>
    <g id="Grupo_22" data-name="Grupo 22" transform="translate(14.076 1.373)">
      <g id="Grupo_21" data-name="Grupo 21">
        <path id="Trazado_138" data-name="Trazado 138" d="M334.986,111.168a.687.687,0,0,0-.614-.378h-3.616v1.373h3.193l1.87,3.719,1.227-.617Z" transform="translate(-330.756 -110.79)" fill="#fff"/>
      </g>
    </g>
    <g id="Grupo_24" data-name="Grupo 24" transform="translate(9.201 11.696)">
      <g id="Grupo_23" data-name="Grupo 23">
        <rect id="Rectángulo_15" data-name="Rectángulo 15" width="5.196" height="1.373" fill="#fff"/>
      </g>
    </g>
    <g id="Grupo_26" data-name="Grupo 26" transform="translate(1.946 11.696)">
      <g id="Grupo_25" data-name="Grupo 25">
        <path id="Trazado_139" data-name="Trazado 139" d="M48.782,353.345H46.4a.687.687,0,1,0,0,1.373h2.38a.687.687,0,1,0,0-1.373Z" transform="translate(-45.715 -353.345)" fill="#fff"/>
      </g>
    </g>
    <g id="Grupo_28" data-name="Grupo 28" transform="translate(1.946 0)">
      <g id="Grupo_27" data-name="Grupo 27">
        <path id="Trazado_140" data-name="Trazado 140" d="M65.415,86.019,64.064,84.28a.686.686,0,0,0-.542-.266h-4.99V79.208a.687.687,0,0,0-.687-.687H46.4a.687.687,0,1,0,0,1.373H57.159V84.7a.687.687,0,0,0,.687.687h5.34l1,1.288v3.541h-1.9a.687.687,0,1,0,0,1.373h2.586a.687.687,0,0,0,.687-.687V86.44A.688.688,0,0,0,65.415,86.019Z" transform="translate(-45.715 -78.521)" fill="#fff"/>
      </g>
    </g>
    <g id="Grupo_30" data-name="Grupo 30" transform="translate(1.122 8.217)">
      <g id="Grupo_29" data-name="Grupo 29">
        <path id="Trazado_141" data-name="Trazado 141" d="M30.2,271.6H27.04a.687.687,0,0,0,0,1.373H30.2a.687.687,0,0,0,0-1.373Z" transform="translate(-26.353 -271.597)" fill="#fff"/>
      </g>
    </g>
    <g id="Grupo_32" data-name="Grupo 32" transform="translate(0 5.516)">
      <g id="Grupo_31" data-name="Grupo 31">
        <path id="Trazado_142" data-name="Trazado 142" d="M6.546,208.134H.687a.687.687,0,0,0,0,1.373H6.546a.687.687,0,0,0,0-1.373Z" transform="translate(0 -208.134)" fill="#fff"/>
      </g>
    </g>
    <g id="Grupo_34" data-name="Grupo 34" transform="translate(1.122 2.815)">
      <g id="Grupo_33" data-name="Grupo 33">
        <path id="Trazado_143" data-name="Trazado 143" d="M32.9,144.672H27.04a.687.687,0,0,0,0,1.373H32.9a.687.687,0,0,0,0-1.373Z" transform="translate(-26.353 -144.672)" fill="#fff"/>
      </g>
    </g>
  </g>
</svg>
