<svg id="_004-search" data-name="004-search" xmlns="http://www.w3.org/2000/svg" width="22.833" height="22.856" viewBox="0 0 22.833 22.856">
  <g id="Grupo_38" data-name="Grupo 38" transform="translate(0)">
    <g id="Grupo_37" data-name="Grupo 37">
      <path id="Trazado_147" data-name="Trazado 147" d="M8.5,0A8.241,8.241,0,1,0,16.74,8.241,8.25,8.25,0,0,0,8.5,0Zm0,14.684a6.443,6.443,0,1,1,6.443-6.443A6.45,6.45,0,0,1,8.5,14.684Z" transform="translate(-0.258 0)" fill="#c3202f"/>
    </g>
  </g>
  <g id="Grupo_40" data-name="Grupo 40" transform="translate(14.085 14.107)">
    <g id="Grupo_39" data-name="Grupo 39">
      <path id="Trazado_148" data-name="Trazado 148" d="M324.261,321.052l-4.767-4.768a.9.9,0,0,0-1.271,0l-2.183,2.183a.9.9,0,0,0,0,1.271l4.768,4.768a.9.9,0,0,0,1.271,0l2.182-2.182A.9.9,0,0,0,324.261,321.052Zm-2.818,1.547-3.5-3.5.911-.911,3.5,3.5Z" transform="translate(-315.776 -316.021)" fill="#c3202f"/>
    </g>
  </g>
  <g id="Grupo_42" data-name="Grupo 42" transform="translate(12.79 12.79)">
    <g id="Grupo_41" data-name="Grupo 41" transform="translate(0 0)">
      <rect id="Rectángulo_16" data-name="Rectángulo 16" width="1.798" height="3.729" transform="translate(0 1.271) rotate(-45)" fill="#c3202f"/>
    </g>
  </g>
</svg>
