<svg xmlns="http://www.w3.org/2000/svg" width="585" height="152.123" viewBox="0 0 585 152.123">
  <g id="Grupo_1" data-name="Grupo 1" transform="translate(-169.092 -127.927)" opacity="0.05">
    <path id="Trazado_39" data-name="Trazado 39" d="M359.3,1126.92S354,1143.5,330.064,1153.37c0,0-22.475,9.844-47.1,10.277s-28.176-.2-43.561-2.728c0,0-25.42-4.427-43.739-10.061l21.663-42.655s27.148,17.395,51.994,15.749c0,0,9.68-.433,14.89-3.355,0,0,7.185-7.339-2.509-10.3,0,0-6.334-2.945-19.155-2.945-1.015,0-26.5-2.522-43.533-12.822-11.188-6.744-16.7-19.033-16.207-28.544,0,0-2.1-32.344,40.174-46.018,0,0,28.163-10.883,58.053-7.756,0,0,35.157,1.7,54.887,12.406l-20.8,38.845s-23.775-11.122-34.525-11.122c-1.44,0-22.665-1.495-23.1,6.088,0,0-3.167,6.306,7.774,7.129,0,0,34.279,3.555,40.38,6.95,0,0,22.924,5.855,31.563,18.695,0,0,12.217,16.584,2.085,35.717" transform="translate(390.777 -883.721)" fill="#fff"/>
    <path id="Trazado_40" data-name="Trazado 40" d="M300.874,1159.807h-75.6v-99.173H184.239v-48.74h157.7v48.74h-41.06Z" transform="translate(245.536 -880.586)" fill="#fff"/>
    <path id="Trazado_41" data-name="Trazado 41" d="M370.794,1159.807l-10.979-81.817-33.333,81.817H282.2l-32.392-81.323L238.9,1159.807H165.227l32.824-147.913h78.188l27.817,77.051,29.389-77.051h74.661l35.359,147.913Z" transform="translate(3.866 -880.586)" fill="#fff"/>
  </g>
</svg>
