<svg xmlns="http://www.w3.org/2000/svg" width="170" height="53.744" viewBox="0 0 170 53.744">
  <g id="Grupo_4" data-name="Grupo 4" transform="translate(-47.402 -30.953)">
    <rect id="Rectángulo_1" data-name="Rectángulo 1" width="11.596" height="11.596" transform="translate(59.955 73.102)" fill="#20a35b"/>
    <rect id="Rectángulo_2" data-name="Rectángulo 2" width="11.596" height="11.596" transform="translate(47.402 73.102)" fill="#c3202f"/>
    <path id="Trazado_1" data-name="Trazado 1" d="M94.637,38.9l-7.951,8.445L78.245,39.4l7.947-8.445Z" transform="translate(-20.395 0)" fill="#20a35b"/>
    <rect id="Rectángulo_3" data-name="Rectángulo 3" width="11.596" height="11.596" transform="translate(47.402 48.127)" fill="#c3202f"/>
    <rect id="Rectángulo_4" data-name="Rectángulo 4" width="11.596" height="11.596" transform="translate(47.402 60.63)" fill="#20a35b"/>
    <rect id="Rectángulo_5" data-name="Rectángulo 5" width="11.596" height="11.596" transform="translate(59.951 60.63)" fill="#c3202f"/>
    <g id="Grupo_1" data-name="Grupo 1" transform="translate(75.563 44.808)">
      <path id="Trazado_2" data-name="Trazado 2" d="M137.394,87.461h-1.778v8.053a3.347,3.347,0,0,1-.7,2.342,2.386,2.386,0,0,1-1.829.752,2.331,2.331,0,0,1-1.881-.787,3.483,3.483,0,0,1-.667-2.308V76.228a2.666,2.666,0,0,1,3.112-3.112h8.259a25.165,25.165,0,0,1,2.924.145,7.349,7.349,0,0,1,2.189.59,6.339,6.339,0,0,1,2.086,1.419,6.218,6.218,0,0,1,1.376,2.146,7.156,7.156,0,0,1,.47,2.59,6.259,6.259,0,0,1-1.582,4.48,9.081,9.081,0,0,1-4.8,2.376,9.3,9.3,0,0,1,2.582,2.12,21.507,21.507,0,0,1,2.2,2.984,22.145,22.145,0,0,1,1.5,2.855,5.653,5.653,0,0,1,.539,1.753,1.791,1.791,0,0,1-.316.983,2.216,2.216,0,0,1-.863.77,2.725,2.725,0,0,1-1.265.282,2.466,2.466,0,0,1-1.437-.4,3.853,3.853,0,0,1-1-1.017q-.419-.615-1.137-1.812l-2.035-3.386a18.652,18.652,0,0,0-1.958-2.838,4.836,4.836,0,0,0-1.753-1.334A6.029,6.029,0,0,0,137.394,87.461ZM140.3,76.929h-4.685v6.89h4.548a12.737,12.737,0,0,0,3.078-.316,3.608,3.608,0,0,0,1.906-1.077,3.1,3.1,0,0,0,.658-2.094,3.236,3.236,0,0,0-.53-1.838,3.2,3.2,0,0,0-1.47-1.188A10.583,10.583,0,0,0,140.3,76.929Z" transform="translate(-130.538 -72.689)" fill="#1a1a1a"/>
      <path id="Trazado_3" data-name="Trazado 3" d="M217.006,94.509l-1.2-3.146h-10.19l-1.2,3.214a11.254,11.254,0,0,1-1.2,2.539,1.9,1.9,0,0,1-1.624.658,2.382,2.382,0,0,1-1.693-.7,2.146,2.146,0,0,1-.735-1.59,3.554,3.554,0,0,1,.171-1.06q.171-.547.564-1.522l6.412-16.277q.273-.7.658-1.684a8.53,8.53,0,0,1,.82-1.633,3.341,3.341,0,0,1,1.146-1.051,3.514,3.514,0,0,1,1.753-.4,3.554,3.554,0,0,1,1.77.4,3.4,3.4,0,0,1,1.145,1.034,7.262,7.262,0,0,1,.735,1.359q.3.727.761,1.941l6.548,16.174a8.134,8.134,0,0,1,.77,2.684,2.223,2.223,0,0,1-.727,1.6,2.389,2.389,0,0,1-1.752.727,2.274,2.274,0,0,1-1.026-.214,2.1,2.1,0,0,1-.718-.582,5.337,5.337,0,0,1-.624-1.128Q217.245,95.09,217.006,94.509ZM206.953,87.55h7.489l-3.779-10.344Z" transform="translate(-175.924 -71.854)" fill="#1a1a1a"/>
      <path id="Trazado_4" data-name="Trazado 4" d="M273.464,75.188,279.14,92l5.694-16.927q.444-1.334.667-1.855a2.47,2.47,0,0,1,.735-.94,2.154,2.154,0,0,1,1.4-.419,2.347,2.347,0,0,1,1.205.325,2.4,2.4,0,0,1,.872.863,2.127,2.127,0,0,1,.316,1.086,3.555,3.555,0,0,1-.1.812,7.369,7.369,0,0,1-.257.855q-.154.419-.308.863l-6.07,16.38q-.325.94-.65,1.787a7.6,7.6,0,0,1-.752,1.487,3.368,3.368,0,0,1-1.137,1.051,3.414,3.414,0,0,1-1.735.411,3.475,3.475,0,0,1-1.736-.4,3.3,3.3,0,0,1-1.145-1.06,7.793,7.793,0,0,1-.761-1.5q-.325-.837-.65-1.778L268.762,76.8q-.154-.445-.316-.872a6.63,6.63,0,0,1-.274-.923,3.933,3.933,0,0,1-.111-.837,2.23,2.23,0,0,1,.7-1.59,2.359,2.359,0,0,1,1.761-.718,2.056,2.056,0,0,1,1.838.795A10.576,10.576,0,0,1,273.464,75.188Z" transform="translate(-221.478 -71.854)" fill="#1a1a1a"/>
      <path id="Trazado_5" data-name="Trazado 5" d="M360.178,77.031H348.74v6.155h10.532a2.509,2.509,0,0,1,1.736.522,1.773,1.773,0,0,1,.573,1.376,1.841,1.841,0,0,1-.564,1.394,2.449,2.449,0,0,1-1.744.539H348.74v7.13h11.832a2.591,2.591,0,0,1,1.8.556,1.909,1.909,0,0,1,.607,1.479,1.868,1.868,0,0,1-.607,1.445,2.589,2.589,0,0,1-1.8.556h-13.8a2.658,2.658,0,0,1-3.112-3.112V76.228a4.223,4.223,0,0,1,.325-1.786A2.017,2.017,0,0,1,345,73.432a4.28,4.28,0,0,1,1.77-.316h13.4a2.6,2.6,0,0,1,1.8.539,1.82,1.82,0,0,1,.59,1.41,1.84,1.84,0,0,1-.59,1.428A2.6,2.6,0,0,1,360.178,77.031Z" transform="translate(-271.471 -72.689)" fill="#1a1a1a"/>
      <path id="Trazado_6" data-name="Trazado 6" d="M418.85,87.461h-1.778v8.053a3.347,3.347,0,0,1-.7,2.342,2.386,2.386,0,0,1-1.829.752,2.331,2.331,0,0,1-1.881-.787,3.483,3.483,0,0,1-.667-2.308V76.228a2.666,2.666,0,0,1,3.112-3.112h8.258a25.164,25.164,0,0,1,2.924.145,7.349,7.349,0,0,1,2.189.59,6.336,6.336,0,0,1,2.086,1.419,6.216,6.216,0,0,1,1.377,2.146,7.15,7.15,0,0,1,.47,2.59,6.26,6.26,0,0,1-1.582,4.48,9.082,9.082,0,0,1-4.8,2.376,9.288,9.288,0,0,1,2.581,2.12,21.437,21.437,0,0,1,2.2,2.984,22.146,22.146,0,0,1,1.505,2.855,5.644,5.644,0,0,1,.539,1.753,1.787,1.787,0,0,1-.317.983,2.214,2.214,0,0,1-.863.77,2.723,2.723,0,0,1-1.265.282,2.464,2.464,0,0,1-1.436-.4,3.856,3.856,0,0,1-1-1.017q-.419-.615-1.137-1.812L424.8,91.992a18.672,18.672,0,0,0-1.958-2.838,4.836,4.836,0,0,0-1.753-1.334A6.029,6.029,0,0,0,418.85,87.461Zm2.907-10.532h-4.685v6.89h4.548A12.737,12.737,0,0,0,424.7,83.5a3.609,3.609,0,0,0,1.906-1.077,3.1,3.1,0,0,0,.658-2.094,3.239,3.239,0,0,0-.53-1.838,3.206,3.206,0,0,0-1.47-1.188A10.582,10.582,0,0,0,421.757,76.929Z" transform="translate(-316.656 -72.689)" fill="#1a1a1a"/>
      <path id="Trazado_7" data-name="Trazado 7" d="M498.462,94.509l-1.2-3.146h-10.19l-1.2,3.214a11.239,11.239,0,0,1-1.2,2.539,1.9,1.9,0,0,1-1.624.658,2.383,2.383,0,0,1-1.693-.7,2.145,2.145,0,0,1-.735-1.59,3.554,3.554,0,0,1,.171-1.06q.171-.547.564-1.522l6.412-16.277q.273-.7.658-1.684a8.551,8.551,0,0,1,.821-1.633,3.334,3.334,0,0,1,1.145-1.051,3.514,3.514,0,0,1,1.753-.4,3.555,3.555,0,0,1,1.77.4,3.4,3.4,0,0,1,1.145,1.034,7.278,7.278,0,0,1,.735,1.359q.3.727.761,1.941l6.548,16.174a8.127,8.127,0,0,1,.77,2.684,2.224,2.224,0,0,1-.727,1.6,2.39,2.39,0,0,1-1.753.727,2.272,2.272,0,0,1-1.026-.214,2.1,2.1,0,0,1-.718-.582,5.319,5.319,0,0,1-.624-1.128Q498.7,95.09,498.462,94.509ZM488.409,87.55H495.9l-3.779-10.344Z" transform="translate(-362.043 -71.854)" fill="#1a1a1a"/>
    </g>
    <g id="Grupo_2" data-name="Grupo 2" transform="translate(76.443 75.454)">
      <path id="Trazado_8" data-name="Trazado 8" d="M138.515,164.174h-3.567v2.287h2.982a.894.894,0,0,1,.619.186.639.639,0,0,1,.2.5.625.625,0,0,1-.207.494.906.906,0,0,1-.616.183h-2.982v2.945a1.185,1.185,0,0,1-.253.832.916.916,0,0,1-1.3,0,1.187,1.187,0,0,1-.253-.829v-6.878a1.507,1.507,0,0,1,.116-.637.72.72,0,0,1,.363-.36,1.525,1.525,0,0,1,.631-.113h4.268a.928.928,0,0,1,.643.192.649.649,0,0,1,.21.5.656.656,0,0,1-.21.509A.928.928,0,0,1,138.515,164.174Z" transform="translate(-133.137 -162.626)" fill="#1a1a1a"/>
      <path id="Trazado_9" data-name="Trazado 9" d="M168.777,164.174H164.7v2.2h3.756a.9.9,0,0,1,.619.186.632.632,0,0,1,.2.491.655.655,0,0,1-.2.5.872.872,0,0,1-.622.192H164.7v2.543h4.22a.924.924,0,0,1,.643.2.68.68,0,0,1,.216.527.666.666,0,0,1-.216.515.924.924,0,0,1-.643.2H164a.948.948,0,0,1-1.11-1.11v-6.72a1.507,1.507,0,0,1,.116-.637.719.719,0,0,1,.363-.36,1.526,1.526,0,0,1,.631-.113h4.781a.929.929,0,0,1,.643.192.649.649,0,0,1,.21.5.656.656,0,0,1-.21.509A.929.929,0,0,1,168.777,164.174Z" transform="translate(-152.809 -162.626)" fill="#1a1a1a"/>
      <path id="Trazado_10" data-name="Trazado 10" d="M197.258,167.894h-.634v2.872a1.193,1.193,0,0,1-.25.835.851.851,0,0,1-.652.268.83.83,0,0,1-.671-.28,1.241,1.241,0,0,1-.238-.823v-6.878a.951.951,0,0,1,1.11-1.11h2.945a8.961,8.961,0,0,1,1.043.052,2.625,2.625,0,0,1,.78.21,2.259,2.259,0,0,1,.744.506,2.216,2.216,0,0,1,.491.765,2.552,2.552,0,0,1,.168.924,2.232,2.232,0,0,1-.564,1.6,3.239,3.239,0,0,1-1.711.848,3.313,3.313,0,0,1,.921.756,7.647,7.647,0,0,1,.783,1.064,7.878,7.878,0,0,1,.537,1.018,2.011,2.011,0,0,1,.192.625.639.639,0,0,1-.113.351.79.79,0,0,1-.308.274.97.97,0,0,1-.451.1.879.879,0,0,1-.512-.143,1.368,1.368,0,0,1-.357-.363q-.15-.219-.405-.646l-.726-1.207a6.67,6.67,0,0,0-.7-1.012,1.723,1.723,0,0,0-.625-.476A2.149,2.149,0,0,0,197.258,167.894Zm1.036-3.756h-1.671V166.6h1.622a4.544,4.544,0,0,0,1.1-.113,1.288,1.288,0,0,0,.68-.384,1.1,1.1,0,0,0,.235-.747,1.154,1.154,0,0,0-.189-.655,1.14,1.14,0,0,0-.524-.424A3.762,3.762,0,0,0,198.295,164.138Z" transform="translate(-173.922 -162.626)" fill="#1a1a1a"/>
      <path id="Trazado_11" data-name="Trazado 11" d="M231.148,167.894h-.634v2.872a1.193,1.193,0,0,1-.25.835.85.85,0,0,1-.652.268.831.831,0,0,1-.671-.28,1.243,1.243,0,0,1-.238-.823v-6.878a.951.951,0,0,1,1.11-1.11h2.945a8.961,8.961,0,0,1,1.043.052,2.621,2.621,0,0,1,.78.21,2.259,2.259,0,0,1,.744.506,2.215,2.215,0,0,1,.491.765,2.552,2.552,0,0,1,.168.924,2.232,2.232,0,0,1-.564,1.6,3.239,3.239,0,0,1-1.71.848,3.312,3.312,0,0,1,.921.756,7.651,7.651,0,0,1,.783,1.064,7.885,7.885,0,0,1,.537,1.018,2,2,0,0,1,.192.625.639.639,0,0,1-.113.351.79.79,0,0,1-.308.274.971.971,0,0,1-.451.1.879.879,0,0,1-.512-.143,1.378,1.378,0,0,1-.357-.363q-.149-.219-.405-.646l-.726-1.207a6.622,6.622,0,0,0-.7-1.012,1.72,1.72,0,0,0-.625-.476A2.148,2.148,0,0,0,231.148,167.894Zm1.037-3.756h-1.671V166.6h1.622a4.544,4.544,0,0,0,1.1-.113,1.287,1.287,0,0,0,.68-.384,1.1,1.1,0,0,0,.235-.747,1.153,1.153,0,0,0-.189-.655,1.14,1.14,0,0,0-.524-.424A3.76,3.76,0,0,0,232.185,164.138Z" transform="translate(-196.332 -162.626)" fill="#1a1a1a"/>
      <path id="Trazado_12" data-name="Trazado 12" d="M268.518,164.174h-4.079v2.2H268.2a.894.894,0,0,1,.619.186.632.632,0,0,1,.2.491.656.656,0,0,1-.2.5.873.873,0,0,1-.622.192h-3.756v2.543h4.22a.924.924,0,0,1,.643.2.68.68,0,0,1,.216.527.666.666,0,0,1-.216.515.924.924,0,0,1-.643.2h-4.921a.948.948,0,0,1-1.11-1.11v-6.72a1.5,1.5,0,0,1,.116-.637.719.719,0,0,1,.362-.36,1.527,1.527,0,0,1,.631-.113h4.78a.929.929,0,0,1,.643.192.649.649,0,0,1,.21.5.656.656,0,0,1-.21.509A.929.929,0,0,1,268.518,164.174Z" transform="translate(-218.766 -162.626)" fill="#1a1a1a"/>
      <path id="Trazado_13" data-name="Trazado 13" d="M298.706,164.272H296.73v6.494a1.2,1.2,0,0,1-.25.832.838.838,0,0,1-.646.271.851.851,0,0,1-.655-.274,1.187,1.187,0,0,1-.253-.829v-6.494H292.95a1,1,0,0,1-.689-.2.692.692,0,0,1-.226-.54.685.685,0,0,1,.235-.549,1.017,1.017,0,0,1,.68-.2h5.756a1.013,1.013,0,0,1,.7.207.7.7,0,0,1,.229.543.684.684,0,0,1-.232.54A1.025,1.025,0,0,1,298.706,164.272Z" transform="translate(-238.212 -162.626)" fill="#1a1a1a"/>
      <path id="Trazado_14" data-name="Trazado 14" d="M330.9,164.174h-4.079v2.2h3.756a.894.894,0,0,1,.619.186.632.632,0,0,1,.2.491.656.656,0,0,1-.2.5.873.873,0,0,1-.622.192h-3.756v2.543h4.22a.924.924,0,0,1,.643.2.68.68,0,0,1,.216.527.666.666,0,0,1-.216.515.923.923,0,0,1-.643.2h-4.921a.948.948,0,0,1-1.11-1.11v-6.72a1.506,1.506,0,0,1,.116-.637.719.719,0,0,1,.363-.36,1.525,1.525,0,0,1,.631-.113H330.9a.929.929,0,0,1,.643.192.649.649,0,0,1,.21.5.656.656,0,0,1-.21.509A.929.929,0,0,1,330.9,164.174Z" transform="translate(-260.015 -162.626)" fill="#1a1a1a"/>
      <path id="Trazado_15" data-name="Trazado 15" d="M359.379,167.894h-.634v2.872a1.193,1.193,0,0,1-.25.835.85.85,0,0,1-.652.268.831.831,0,0,1-.671-.28,1.243,1.243,0,0,1-.238-.823v-6.878a.951.951,0,0,1,1.11-1.11h2.945a8.953,8.953,0,0,1,1.043.052,2.621,2.621,0,0,1,.78.21,2.26,2.26,0,0,1,.744.506,2.215,2.215,0,0,1,.491.765,2.546,2.546,0,0,1,.168.924,2.233,2.233,0,0,1-.564,1.6,3.241,3.241,0,0,1-1.711.848,3.313,3.313,0,0,1,.921.756,7.651,7.651,0,0,1,.783,1.064,7.893,7.893,0,0,1,.537,1.018,2.008,2.008,0,0,1,.192.625.641.641,0,0,1-.112.351.793.793,0,0,1-.308.274.972.972,0,0,1-.451.1.879.879,0,0,1-.512-.143,1.379,1.379,0,0,1-.357-.363q-.149-.219-.405-.646l-.726-1.207a6.648,6.648,0,0,0-.7-1.012,1.723,1.723,0,0,0-.625-.476A2.151,2.151,0,0,0,359.379,167.894Zm1.037-3.756h-1.671V166.6h1.622a4.546,4.546,0,0,0,1.1-.113,1.287,1.287,0,0,0,.68-.384,1.1,1.1,0,0,0,.235-.747,1.153,1.153,0,0,0-.189-.655,1.14,1.14,0,0,0-.524-.424A3.76,3.76,0,0,0,360.416,164.138Z" transform="translate(-281.127 -162.626)" fill="#1a1a1a"/>
      <path id="Trazado_16" data-name="Trazado 16" d="M391.075,170.468v-7.043a1.187,1.187,0,0,1,.25-.823.834.834,0,0,1,.646-.274.863.863,0,0,1,.662.271,1.175,1.175,0,0,1,.253.826v7.043a1.187,1.187,0,0,1-.253.829.858.858,0,0,1-.662.274.832.832,0,0,1-.643-.277A1.189,1.189,0,0,1,391.075,170.468Z" transform="translate(-303.704 -162.328)" fill="#1a1a1a"/>
      <path id="Trazado_17" data-name="Trazado 17" d="M414.241,170.407l-.427-1.122H410.18l-.426,1.147a4.028,4.028,0,0,1-.427.905.679.679,0,0,1-.58.235.849.849,0,0,1-.6-.25.765.765,0,0,1-.263-.567,1.265,1.265,0,0,1,.061-.378q.061-.2.2-.543l2.286-5.805.235-.6a3.029,3.029,0,0,1,.293-.583,1.187,1.187,0,0,1,.409-.375,1.249,1.249,0,0,1,.625-.143,1.266,1.266,0,0,1,.631.143,1.214,1.214,0,0,1,.409.369,2.548,2.548,0,0,1,.262.485q.107.26.271.692l2.336,5.768a2.9,2.9,0,0,1,.275.957.793.793,0,0,1-.26.57.852.852,0,0,1-.625.259.81.81,0,0,1-.366-.076.749.749,0,0,1-.256-.207,1.916,1.916,0,0,1-.223-.4Q414.327,170.615,414.241,170.407Zm-3.586-2.482h2.671l-1.347-3.689Z" transform="translate(-314.817 -162.328)" fill="#1a1a1a"/>
    </g>
    <path id="Trazado_18" data-name="Trazado 18" d="M442.785,162.328v9.244h36.072v-9.244Z" transform="translate(-261.455 -86.874)" fill="#e63027"/>
    <path id="Trazado_19" data-name="Trazado 19" d="M446.58,170.563a.868.868,0,0,0-.121.194.844.844,0,0,0-.225-.516.609.609,0,0,0-.436-.167.683.683,0,0,0-.366.1.542.542,0,0,0-.231.27,1.431,1.431,0,0,0-.066.494v1.076h2.43v-.321h-1.078v-.374a.939.939,0,0,1,.011-.179.463.463,0,0,1,.064-.146.733.733,0,0,1,.163-.163c.078-.061.19-.139.335-.232l.505-.322v-.4l-.661.422A1.726,1.726,0,0,0,446.58,170.563Zm-.373,1.13h-.8v-.769a.583.583,0,0,1,.11-.394.362.362,0,0,1,.284-.126.4.4,0,0,1,.219.064.378.378,0,0,1,.146.19,1.067,1.067,0,0,1,.045.344Zm33.275-3.036a3.038,3.038,0,0,0-1.507-.892,11.522,11.522,0,0,0-1.929-.331c-.522-.041-.37-.342-.37-.342.02-.362,1.034-.29,1.1-.29a6.108,6.108,0,0,1,1.647.53l.994-1.854a7.643,7.643,0,0,0-2.621-.592,6.738,6.738,0,0,0-2.771.37c-2.019.651-1.918,2.2-1.918,2.2a1.581,1.581,0,0,0,.774,1.365,5.63,5.63,0,0,0,2.077.611,2.343,2.343,0,0,1,.914.141c.463.14.122.491.122.491a2.015,2.015,0,0,1-.713.16,4.87,4.87,0,0,1-2.482-.751l-1.035,2.036a20.618,20.618,0,0,0,2.091.482,8.484,8.484,0,0,0,2.078.129,6.617,6.617,0,0,0,2.249-.49,2.339,2.339,0,0,0,1.4-1.264A1.676,1.676,0,0,0,479.482,168.657Zm-32.2.456h-.827V167.77h-.285v1.343h-.746v-1.434h-.287v1.756h2.43v-1.812h-.286Zm24.54-4.092h-7.532v2.329h1.961v4.733h3.61V167.35h1.961ZM447.4,165.5a.874.874,0,0,0-.219-.222,1.2,1.2,0,0,0-.355-.165,1.688,1.688,0,0,0-.49-.065,1.633,1.633,0,0,0-.577.1.987.987,0,0,0-.416.287.821.821,0,0,0-.174.355,2.03,2.03,0,0,0-.035.432v.837h2.43v-.876a1.612,1.612,0,0,0-.041-.389A.9.9,0,0,0,447.4,165.5Zm-.123,1.234h-1.857v-.51a1.234,1.234,0,0,1,.05-.415.62.62,0,0,1,.275-.3,1.119,1.119,0,0,1,.585-.126,1.491,1.491,0,0,1,.469.065.75.75,0,0,1,.307.177.539.539,0,0,1,.126.218,1.253,1.253,0,0,1,.045.376Zm12.594-1.708-1.4,3.679-1.33-3.679h-3.731l-1.57,7.062h3.519l.522-3.882,1.545,3.882h2.116l1.592-3.906.524,3.906h3.469l-1.688-7.062Z" transform="translate(-263.009 -88.549)" fill="#fff"/>
  </g>
</svg>
