<svg xmlns="http://www.w3.org/2000/svg" width="226.245" height="71.526" viewBox="0 0 226.245 71.526">
  <g id="Grupo_3" data-name="Grupo 3" transform="translate(-47.402 -30.953)">
    <rect id="Rectángulo_1" data-name="Rectángulo 1" width="15.432" height="15.432" transform="translate(64.108 87.047)" fill="#fff"/>
    <rect id="Rectángulo_2" data-name="Rectángulo 2" width="15.432" height="15.432" transform="translate(47.402 87.047)" fill="#fff"/>
    <path id="Trazado_1" data-name="Trazado 1" d="M100.061,41.53,89.479,52.769,78.245,42.193,88.822,30.953Z" transform="translate(-16.939 0)" fill="#fff"/>
    <rect id="Rectángulo_3" data-name="Rectángulo 3" width="15.432" height="15.432" transform="translate(47.402 53.809)" fill="#fff"/>
    <rect id="Rectángulo_4" data-name="Rectángulo 4" width="15.432" height="15.432" transform="translate(47.402 70.448)" fill="#fff"/>
    <rect id="Rectángulo_5" data-name="Rectángulo 5" width="15.432" height="15.432" transform="translate(64.103 70.448)" fill="#fff"/>
    <g id="Grupo_1" data-name="Grupo 1" transform="translate(84.88 49.391)">
      <path id="Trazado_2" data-name="Trazado 2" d="M139.663,92.207H137.3v10.718a4.455,4.455,0,0,1-.933,3.117,3.176,3.176,0,0,1-2.435,1,3.1,3.1,0,0,1-2.5-1.047,4.636,4.636,0,0,1-.888-3.072V77.257a3.548,3.548,0,0,1,4.141-4.141H145.67a33.487,33.487,0,0,1,3.891.193,9.78,9.78,0,0,1,2.913.785,8.436,8.436,0,0,1,2.776,1.888,8.276,8.276,0,0,1,1.832,2.856,9.523,9.523,0,0,1,.626,3.447,8.33,8.33,0,0,1-2.1,5.962,12.085,12.085,0,0,1-6.382,3.162,12.375,12.375,0,0,1,3.436,2.822,28.618,28.618,0,0,1,2.924,3.971,29.473,29.473,0,0,1,2,3.8,7.524,7.524,0,0,1,.717,2.332,2.384,2.384,0,0,1-.421,1.308,2.949,2.949,0,0,1-1.149,1.024,3.627,3.627,0,0,1-1.684.376,3.281,3.281,0,0,1-1.912-.535,5.128,5.128,0,0,1-1.331-1.354q-.558-.819-1.513-2.412l-2.708-4.506a24.82,24.82,0,0,0-2.605-3.777,6.436,6.436,0,0,0-2.332-1.775A8.023,8.023,0,0,0,139.663,92.207Zm3.868-14.017H137.3v9.17h6.053a16.95,16.95,0,0,0,4.1-.421,4.8,4.8,0,0,0,2.537-1.434,4.121,4.121,0,0,0,.876-2.787,4.307,4.307,0,0,0-.705-2.446,4.263,4.263,0,0,0-1.956-1.581A14.084,14.084,0,0,0,143.531,78.19Z" transform="translate(-130.538 -72.547)" fill="#fff"/>
      <path id="Trazado_3" data-name="Trazado 3" d="M222.906,102l-1.593-4.187H207.752l-1.593,4.278a14.979,14.979,0,0,1-1.593,3.379,2.533,2.533,0,0,1-2.162.876,3.17,3.17,0,0,1-2.253-.933,2.856,2.856,0,0,1-.979-2.116,4.731,4.731,0,0,1,.228-1.411q.227-.728.751-2.025L208.685,78.2q.363-.933.876-2.241a11.351,11.351,0,0,1,1.092-2.173,4.447,4.447,0,0,1,1.525-1.4,4.677,4.677,0,0,1,2.332-.535,4.73,4.73,0,0,1,2.355.535,4.53,4.53,0,0,1,1.524,1.377,9.665,9.665,0,0,1,.979,1.809q.4.968,1.013,2.583L229.1,99.683a10.825,10.825,0,0,1,1.024,3.573,2.959,2.959,0,0,1-.967,2.128,3.18,3.18,0,0,1-2.332.967,3.027,3.027,0,0,1-1.365-.284,2.8,2.8,0,0,1-.956-.774,7.1,7.1,0,0,1-.83-1.5Q223.224,102.778,222.906,102Zm-13.38-9.261h9.966l-5.029-13.767Z" transform="translate(-168.232 -71.854)" fill="#fff"/>
      <path id="Trazado_4" data-name="Trazado 4" d="M275.251,76.291l7.554,22.368,7.578-22.527q.591-1.775.887-2.469a3.288,3.288,0,0,1,.979-1.251,2.867,2.867,0,0,1,1.866-.558,3.124,3.124,0,0,1,1.6.432,3.188,3.188,0,0,1,1.161,1.149,2.831,2.831,0,0,1,.421,1.445,4.733,4.733,0,0,1-.137,1.081,9.819,9.819,0,0,1-.342,1.138q-.2.558-.409,1.149l-8.078,21.8q-.433,1.252-.865,2.378a10.113,10.113,0,0,1-1,1.979,4.482,4.482,0,0,1-1.513,1.4,4.544,4.544,0,0,1-2.309.546,4.624,4.624,0,0,1-2.31-.535,4.39,4.39,0,0,1-1.524-1.411,10.37,10.37,0,0,1-1.012-1.991q-.433-1.114-.865-2.366L268.994,78.43q-.2-.592-.421-1.161a8.83,8.83,0,0,1-.364-1.229,5.23,5.23,0,0,1-.148-1.114,2.968,2.968,0,0,1,.933-2.117,3.139,3.139,0,0,1,2.344-.956,2.737,2.737,0,0,1,2.446,1.058A14.075,14.075,0,0,1,275.251,76.291Z" transform="translate(-206.066 -71.854)" fill="#fff"/>
      <path id="Trazado_5" data-name="Trazado 5" d="M365.643,78.327H350.42v8.191h14.017a3.339,3.339,0,0,1,2.31.694,2.359,2.359,0,0,1,.762,1.832,2.449,2.449,0,0,1-.751,1.855,3.26,3.26,0,0,1-2.321.717H350.42V101.1h15.746a3.448,3.448,0,0,1,2.4.74,2.541,2.541,0,0,1,.808,1.968,2.486,2.486,0,0,1-.808,1.923,3.446,3.446,0,0,1-2.4.74H347.8a3.538,3.538,0,0,1-4.141-4.142V77.257a5.62,5.62,0,0,1,.432-2.378,2.684,2.684,0,0,1,1.354-1.342,5.7,5.7,0,0,1,2.355-.421h17.84a3.466,3.466,0,0,1,2.4.717,2.422,2.422,0,0,1,.785,1.877,2.449,2.449,0,0,1-.785,1.9A3.466,3.466,0,0,1,365.643,78.327Z" transform="translate(-247.586 -72.547)" fill="#fff"/>
      <path id="Trazado_6" data-name="Trazado 6" d="M421.119,92.207h-2.366v10.718a4.455,4.455,0,0,1-.933,3.117,3.175,3.175,0,0,1-2.435,1,3.1,3.1,0,0,1-2.5-1.047,4.636,4.636,0,0,1-.888-3.072V77.257a3.549,3.549,0,0,1,4.141-4.141h10.99a33.485,33.485,0,0,1,3.891.193,9.781,9.781,0,0,1,2.913.785,8.431,8.431,0,0,1,2.776,1.888,8.272,8.272,0,0,1,1.832,2.856,9.514,9.514,0,0,1,.626,3.447,8.331,8.331,0,0,1-2.105,5.962,12.086,12.086,0,0,1-6.382,3.162,12.361,12.361,0,0,1,3.436,2.822,28.538,28.538,0,0,1,2.924,3.971,29.468,29.468,0,0,1,2,3.8,7.51,7.51,0,0,1,.717,2.332,2.378,2.378,0,0,1-.422,1.308,2.947,2.947,0,0,1-1.149,1.024,3.624,3.624,0,0,1-1.684.376,3.279,3.279,0,0,1-1.911-.535,5.13,5.13,0,0,1-1.331-1.354q-.558-.819-1.513-2.412l-2.708-4.506a24.858,24.858,0,0,0-2.606-3.777,6.436,6.436,0,0,0-2.332-1.775A8.023,8.023,0,0,0,421.119,92.207Zm3.868-14.017h-6.235v9.17H424.8a16.95,16.95,0,0,0,4.1-.421,4.8,4.8,0,0,0,2.537-1.434,4.12,4.12,0,0,0,.876-2.787,4.311,4.311,0,0,0-.705-2.446,4.266,4.266,0,0,0-1.957-1.581A14.083,14.083,0,0,0,424.987,78.19Z" transform="translate(-285.114 -72.547)" fill="#fff"/>
      <path id="Trazado_7" data-name="Trazado 7" d="M504.362,102l-1.593-4.187H489.208l-1.593,4.278a14.953,14.953,0,0,1-1.593,3.379,2.532,2.532,0,0,1-2.161.876,3.171,3.171,0,0,1-2.253-.933,2.855,2.855,0,0,1-.979-2.116,4.73,4.73,0,0,1,.228-1.411q.227-.728.751-2.025L490.141,78.2q.363-.933.875-2.241a11.381,11.381,0,0,1,1.093-2.173,4.438,4.438,0,0,1,1.524-1.4,4.677,4.677,0,0,1,2.332-.535,4.73,4.73,0,0,1,2.355.535,4.525,4.525,0,0,1,1.524,1.377,9.694,9.694,0,0,1,.979,1.809q.4.968,1.013,2.583l8.715,21.526a10.815,10.815,0,0,1,1.024,3.573,2.96,2.96,0,0,1-.967,2.128,3.181,3.181,0,0,1-2.332.967,3.025,3.025,0,0,1-1.365-.284,2.791,2.791,0,0,1-.956-.774,7.082,7.082,0,0,1-.83-1.5Q504.681,102.778,504.362,102Zm-13.38-9.261h9.967l-5.029-13.767Z" transform="translate(-322.808 -71.854)" fill="#fff"/>
    </g>
    <g id="Grupo_2" data-name="Grupo 2" transform="translate(86.051 90.177)">
      <path id="Trazado_8" data-name="Trazado 8" d="M140.294,164.636h-4.747v3.043h3.968a1.19,1.19,0,0,1,.824.247.851.851,0,0,1,.272.661.832.832,0,0,1-.276.657,1.206,1.206,0,0,1-.82.243h-3.968v3.92a1.578,1.578,0,0,1-.337,1.108,1.22,1.22,0,0,1-1.736,0,1.58,1.58,0,0,1-.337-1.1v-9.154a2.005,2.005,0,0,1,.154-.848.957.957,0,0,1,.483-.479,2.029,2.029,0,0,1,.84-.15h5.681a1.235,1.235,0,0,1,.856.256.864.864,0,0,1,.28.669.873.873,0,0,1-.28.678A1.235,1.235,0,0,1,140.294,164.636Z" transform="translate(-133.137 -162.575)" fill="#fff"/>
      <path id="Trazado_9" data-name="Trazado 9" d="M170.725,164.636H165.3v2.922h5a1.19,1.19,0,0,1,.824.247.841.841,0,0,1,.272.653.872.872,0,0,1-.268.661,1.161,1.161,0,0,1-.828.256h-5v3.384h5.616a1.23,1.23,0,0,1,.856.264.906.906,0,0,1,.288.7.887.887,0,0,1-.288.686,1.23,1.23,0,0,1-.856.264h-6.549a1.262,1.262,0,0,1-1.477-1.477v-8.943a2.006,2.006,0,0,1,.154-.848.958.958,0,0,1,.483-.479,2.031,2.031,0,0,1,.84-.15h6.363a1.236,1.236,0,0,1,.856.256.864.864,0,0,1,.28.669.873.873,0,0,1-.28.678A1.236,1.236,0,0,1,170.725,164.636Z" transform="translate(-149.475 -162.575)" fill="#fff"/>
      <path id="Trazado_10" data-name="Trazado 10" d="M198.067,169.586h-.844v3.822a1.588,1.588,0,0,1-.333,1.112,1.133,1.133,0,0,1-.868.357,1.105,1.105,0,0,1-.893-.373,1.652,1.652,0,0,1-.317-1.1v-9.154a1.265,1.265,0,0,1,1.477-1.477h3.92a11.914,11.914,0,0,1,1.388.069,3.493,3.493,0,0,1,1.039.28,3.007,3.007,0,0,1,.99.674,2.949,2.949,0,0,1,.653,1.018,3.4,3.4,0,0,1,.223,1.23,2.971,2.971,0,0,1-.751,2.126,4.311,4.311,0,0,1-2.277,1.128,4.409,4.409,0,0,1,1.226,1.007,10.179,10.179,0,0,1,1.043,1.416,10.486,10.486,0,0,1,.714,1.355,2.676,2.676,0,0,1,.256.832.85.85,0,0,1-.15.467,1.052,1.052,0,0,1-.41.365,1.292,1.292,0,0,1-.6.134,1.17,1.17,0,0,1-.682-.191,1.82,1.82,0,0,1-.475-.483q-.2-.292-.54-.86l-.966-1.607a8.881,8.881,0,0,0-.93-1.347,2.293,2.293,0,0,0-.832-.633A2.859,2.859,0,0,0,198.067,169.586Zm1.379-5h-2.223v3.271h2.158a6.047,6.047,0,0,0,1.461-.15,1.714,1.714,0,0,0,.905-.511,1.469,1.469,0,0,0,.312-.994,1.535,1.535,0,0,0-.252-.872,1.516,1.516,0,0,0-.7-.564A5.007,5.007,0,0,0,199.447,164.588Z" transform="translate(-167.009 -162.575)" fill="#fff"/>
      <path id="Trazado_11" data-name="Trazado 11" d="M231.957,169.586h-.844v3.822a1.588,1.588,0,0,1-.333,1.112,1.132,1.132,0,0,1-.868.357,1.105,1.105,0,0,1-.893-.373,1.654,1.654,0,0,1-.317-1.1v-9.154a1.265,1.265,0,0,1,1.477-1.477h3.92a11.914,11.914,0,0,1,1.388.069,3.489,3.489,0,0,1,1.039.28,3.006,3.006,0,0,1,.99.674,2.948,2.948,0,0,1,.653,1.018,3.4,3.4,0,0,1,.223,1.23,2.971,2.971,0,0,1-.751,2.126,4.311,4.311,0,0,1-2.276,1.128,4.408,4.408,0,0,1,1.225,1.007,10.179,10.179,0,0,1,1.043,1.416,10.488,10.488,0,0,1,.714,1.355,2.664,2.664,0,0,1,.256.832.85.85,0,0,1-.15.467,1.053,1.053,0,0,1-.41.365,1.292,1.292,0,0,1-.6.134,1.17,1.17,0,0,1-.682-.191,1.833,1.833,0,0,1-.475-.483q-.2-.292-.54-.86l-.966-1.607a8.813,8.813,0,0,0-.93-1.347,2.289,2.289,0,0,0-.832-.633A2.859,2.859,0,0,0,231.957,169.586Zm1.38-5h-2.224v3.271h2.158a6.047,6.047,0,0,0,1.461-.15,1.712,1.712,0,0,0,.905-.511,1.469,1.469,0,0,0,.312-.994,1.535,1.535,0,0,0-.252-.872,1.517,1.517,0,0,0-.7-.564A5,5,0,0,0,233.337,164.588Z" transform="translate(-185.622 -162.575)" fill="#fff"/>
      <path id="Trazado_12" data-name="Trazado 12" d="M270.467,164.636h-5.429v2.922h5a1.189,1.189,0,0,1,.824.247.841.841,0,0,1,.272.653.873.873,0,0,1-.268.661,1.162,1.162,0,0,1-.828.256h-5v3.384h5.616a1.23,1.23,0,0,1,.856.264.906.906,0,0,1,.288.7.887.887,0,0,1-.288.686,1.229,1.229,0,0,1-.856.264h-6.549a1.262,1.262,0,0,1-1.477-1.477v-8.943a2,2,0,0,1,.155-.848.956.956,0,0,1,.482-.479,2.031,2.031,0,0,1,.84-.15h6.362a1.236,1.236,0,0,1,.856.256.864.864,0,0,1,.28.669.873.873,0,0,1-.28.678A1.236,1.236,0,0,1,270.467,164.636Z" transform="translate(-204.253 -162.575)" fill="#fff"/>
      <path id="Trazado_13" data-name="Trazado 13" d="M300.913,164.766h-2.63v8.642a1.59,1.59,0,0,1-.333,1.108,1.116,1.116,0,0,1-.86.361,1.132,1.132,0,0,1-.872-.365,1.58,1.58,0,0,1-.337-1.1v-8.642h-2.63a1.331,1.331,0,0,1-.917-.272.921.921,0,0,1-.3-.718.911.911,0,0,1,.312-.73,1.353,1.353,0,0,1,.9-.268h7.661a1.348,1.348,0,0,1,.929.276.929.929,0,0,1,.3.722.91.91,0,0,1-.308.718A1.364,1.364,0,0,1,300.913,164.766Z" transform="translate(-220.404 -162.575)" fill="#fff"/>
      <path id="Trazado_14" data-name="Trazado 14" d="M332.846,164.636h-5.429v2.922h5a1.19,1.19,0,0,1,.824.247.841.841,0,0,1,.272.653.873.873,0,0,1-.268.661,1.162,1.162,0,0,1-.828.256h-5v3.384h5.616a1.229,1.229,0,0,1,.856.264.906.906,0,0,1,.288.7.887.887,0,0,1-.288.686,1.229,1.229,0,0,1-.856.264h-6.549a1.262,1.262,0,0,1-1.477-1.477v-8.943a2.005,2.005,0,0,1,.154-.848.957.957,0,0,1,.483-.479,2.029,2.029,0,0,1,.84-.15h6.362a1.236,1.236,0,0,1,.856.256.864.864,0,0,1,.28.669.873.873,0,0,1-.28.678A1.236,1.236,0,0,1,332.846,164.636Z" transform="translate(-238.512 -162.575)" fill="#fff"/>
      <path id="Trazado_15" data-name="Trazado 15" d="M360.188,169.586h-.844v3.822a1.588,1.588,0,0,1-.333,1.112,1.132,1.132,0,0,1-.868.357,1.106,1.106,0,0,1-.893-.373,1.654,1.654,0,0,1-.316-1.1v-9.154a1.265,1.265,0,0,1,1.477-1.477h3.92a11.9,11.9,0,0,1,1.388.069,3.488,3.488,0,0,1,1.039.28,3.008,3.008,0,0,1,.99.674,2.948,2.948,0,0,1,.653,1.018,3.388,3.388,0,0,1,.224,1.23,2.973,2.973,0,0,1-.751,2.126A4.314,4.314,0,0,1,363.6,169.3a4.41,4.41,0,0,1,1.225,1.007,10.189,10.189,0,0,1,1.043,1.416,10.5,10.5,0,0,1,.715,1.355,2.673,2.673,0,0,1,.255.832.853.853,0,0,1-.15.467,1.056,1.056,0,0,1-.41.365,1.294,1.294,0,0,1-.6.134,1.17,1.17,0,0,1-.682-.191,1.835,1.835,0,0,1-.475-.483q-.2-.292-.54-.86l-.966-1.607a8.85,8.85,0,0,0-.929-1.347,2.294,2.294,0,0,0-.832-.633A2.863,2.863,0,0,0,360.188,169.586Zm1.38-5h-2.224v3.271H361.5a6.05,6.05,0,0,0,1.461-.15,1.713,1.713,0,0,0,.9-.511,1.469,1.469,0,0,0,.312-.994,1.535,1.535,0,0,0-.252-.872,1.518,1.518,0,0,0-.7-.564A5,5,0,0,0,361.568,164.588Z" transform="translate(-256.046 -162.575)" fill="#fff"/>
      <path id="Trazado_16" data-name="Trazado 16" d="M391.075,173.162v-9.373a1.579,1.579,0,0,1,.333-1.1,1.11,1.11,0,0,1,.86-.365,1.148,1.148,0,0,1,.88.361,1.564,1.564,0,0,1,.337,1.1v9.373a1.58,1.58,0,0,1-.337,1.1,1.142,1.142,0,0,1-.88.365,1.108,1.108,0,0,1-.856-.369A1.583,1.583,0,0,1,391.075,173.162Z" transform="translate(-274.797 -162.328)" fill="#fff"/>
      <path id="Trazado_17" data-name="Trazado 17" d="M416.345,173.08l-.568-1.493H410.94l-.567,1.526a5.359,5.359,0,0,1-.568,1.2.9.9,0,0,1-.771.312,1.129,1.129,0,0,1-.8-.333,1.018,1.018,0,0,1-.349-.755,1.684,1.684,0,0,1,.081-.5q.081-.26.268-.722l3.043-7.726.312-.8a4.034,4.034,0,0,1,.389-.775,1.58,1.58,0,0,1,.544-.5,1.662,1.662,0,0,1,.831-.191,1.685,1.685,0,0,1,.84.191,1.615,1.615,0,0,1,.544.491,3.389,3.389,0,0,1,.349.645q.143.346.361.921l3.108,7.677a3.863,3.863,0,0,1,.366,1.274,1.055,1.055,0,0,1-.345.759,1.133,1.133,0,0,1-.832.345,1.077,1.077,0,0,1-.487-.1,1,1,0,0,1-.341-.276,2.558,2.558,0,0,1-.3-.536Q416.459,173.356,416.345,173.08Zm-4.772-3.3h3.554l-1.793-4.91Z" transform="translate(-284.027 -162.328)" fill="#fff"/>
    </g>
    <path id="Trazado_18" data-name="Trazado 18" d="M442.785,162.328v12.3h48.007v-12.3Z" transform="translate(-217.144 -72.151)" fill="#fff"/>
    <path id="Trazado_19" data-name="Trazado 19" d="M447.059,172.449a1.163,1.163,0,0,0-.161.259,1.123,1.123,0,0,0-.3-.687.81.81,0,0,0-.58-.222.909.909,0,0,0-.487.133.721.721,0,0,0-.308.359,1.9,1.9,0,0,0-.088.657v1.432h3.234v-.427h-1.435v-.5a1.245,1.245,0,0,1,.015-.238.618.618,0,0,1,.085-.194.979.979,0,0,1,.216-.217c.1-.082.252-.184.445-.309l.672-.429v-.536l-.879.562A2.3,2.3,0,0,0,447.059,172.449Zm-.5,1.5h-1.069V172.93a.775.775,0,0,1,.147-.524.481.481,0,0,1,.377-.168.537.537,0,0,1,.292.085.5.5,0,0,1,.194.253,1.421,1.421,0,0,1,.059.458Zm44.283-4.04a4.043,4.043,0,0,0-2.006-1.187,15.334,15.334,0,0,0-2.568-.44c-.695-.055-.493-.455-.493-.455.027-.481,1.376-.385,1.469-.385a8.127,8.127,0,0,1,2.192.705l1.323-2.467a10.172,10.172,0,0,0-3.488-.788,8.967,8.967,0,0,0-3.688.493c-2.687.867-2.552,2.923-2.552,2.923a2.1,2.1,0,0,0,1.03,1.816,7.493,7.493,0,0,0,2.765.814,3.118,3.118,0,0,1,1.217.188c.616.186.162.653.162.653a2.682,2.682,0,0,1-.949.212,6.482,6.482,0,0,1-3.3-1l-1.378,2.709a27.446,27.446,0,0,0,2.782.642,11.293,11.293,0,0,0,2.766.171,8.806,8.806,0,0,0,2.993-.653,3.114,3.114,0,0,0,1.859-1.682A2.23,2.23,0,0,0,490.846,169.913Zm-42.858.607h-1.1v-1.787h-.379v1.787h-.992v-1.908h-.381v2.336h3.234v-2.411h-.381Zm32.66-5.445H470.624v3.1h2.609v6.3h4.8v-6.3h2.61Zm-32.5.63a1.162,1.162,0,0,0-.292-.295,1.6,1.6,0,0,0-.472-.219,2.247,2.247,0,0,0-.653-.087,2.173,2.173,0,0,0-.767.128,1.313,1.313,0,0,0-.554.382,1.091,1.091,0,0,0-.232.473,2.7,2.7,0,0,0-.046.575v1.113h3.234V166.61a2.148,2.148,0,0,0-.055-.518A1.194,1.194,0,0,0,448.151,165.7Zm-.164,1.643h-2.471v-.679a1.643,1.643,0,0,1,.067-.552.825.825,0,0,1,.367-.4,1.49,1.49,0,0,1,.779-.168,1.984,1.984,0,0,1,.623.087,1,1,0,0,1,.408.236.718.718,0,0,1,.168.29,1.669,1.669,0,0,1,.06.5Zm16.761-2.273-1.866,4.9-1.77-4.9h-4.966l-2.089,9.4h4.683l.7-5.166,2.056,5.166h2.816l2.118-5.2.7,5.2h4.617l-2.246-9.4Z" transform="translate(-218.435 -73.542)" fill="#b92b3a"/>
  </g>
</svg>
